<mxfile host="app.diagrams.net" modified="2022-12-05T02:43:54.131Z" agent="5.0 (Windows NT 10.0; Win64; x64) AppleWebKit/537.36 (KHTML, like Gecko) Chrome/107.0.0.0 Safari/537.36" etag="PL_seV_tU6DvTbnksnu_" version="20.6.0" type="github">
  <diagram id="Ca3LP7ld4Qo2mXdzum3C" name="第 1 页">
    <mxGraphModel dx="1353" dy="746" grid="1" gridSize="10" guides="1" tooltips="1" connect="1" arrows="1" fold="1" page="1" pageScale="1" pageWidth="827" pageHeight="1169" math="0" shadow="0">
      <root>
        <mxCell id="0" />
        <mxCell id="1" parent="0" />
        <mxCell id="r_Lx60y4R6_hD9oL_kPP-176" value="" style="whiteSpace=wrap;html=1;strokeColor=default;fontFamily=Helvetica;fontSize=19;fontColor=default;fillColor=default;" parent="1" vertex="1">
          <mxGeometry x="1510" y="150" width="1520" height="490" as="geometry" />
        </mxCell>
        <mxCell id="r_Lx60y4R6_hD9oL_kPP-179" value="" style="rounded=1;whiteSpace=wrap;html=1;strokeColor=#36393d;fontFamily=Helvetica;fontSize=19;fillColor=#ffff88;" parent="1" vertex="1">
          <mxGeometry x="1670" y="425" width="840" height="205" as="geometry" />
        </mxCell>
        <mxCell id="r_Lx60y4R6_hD9oL_kPP-180" value="" style="rounded=1;whiteSpace=wrap;html=1;strokeColor=#b85450;fontFamily=Helvetica;fontSize=19;fillColor=#f8cecc;" parent="1" vertex="1">
          <mxGeometry x="1670" y="160" width="1190" height="250" as="geometry" />
        </mxCell>
        <mxCell id="r_Lx60y4R6_hD9oL_kPP-155" value="" style="whiteSpace=wrap;html=1;fontSize=25;" parent="1" vertex="1">
          <mxGeometry x="520" y="1260" width="970" height="1045" as="geometry" />
        </mxCell>
        <mxCell id="r_Lx60y4R6_hD9oL_kPP-163" value="" style="rounded=1;whiteSpace=wrap;html=1;strokeColor=#0e8088;fontFamily=Helvetica;fontSize=19;fillColor=#b0e3e6;" parent="1" vertex="1">
          <mxGeometry x="550" y="2110" width="465" height="100" as="geometry" />
        </mxCell>
        <mxCell id="r_Lx60y4R6_hD9oL_kPP-162" value="" style="rounded=1;whiteSpace=wrap;html=1;strokeColor=#0e8088;fontFamily=Helvetica;fontSize=19;fillColor=#b0e3e6;" parent="1" vertex="1">
          <mxGeometry x="550" y="1969.49" width="770" height="100" as="geometry" />
        </mxCell>
        <mxCell id="r_Lx60y4R6_hD9oL_kPP-161" value="" style="rounded=1;whiteSpace=wrap;html=1;strokeColor=#0e8088;fontFamily=Helvetica;fontSize=19;fillColor=#b0e3e6;" parent="1" vertex="1">
          <mxGeometry x="550" y="1805" width="830" height="130" as="geometry" />
        </mxCell>
        <mxCell id="r_Lx60y4R6_hD9oL_kPP-160" value="" style="rounded=1;whiteSpace=wrap;html=1;strokeColor=#0e8088;fontFamily=Helvetica;fontSize=19;fillColor=#b0e3e6;" parent="1" vertex="1">
          <mxGeometry x="555" y="1520" width="425" height="230" as="geometry" />
        </mxCell>
        <mxCell id="r_Lx60y4R6_hD9oL_kPP-159" value="" style="rounded=1;whiteSpace=wrap;html=1;strokeColor=#0e8088;fontFamily=Helvetica;fontSize=19;fillColor=#b0e3e6;" parent="1" vertex="1">
          <mxGeometry x="555" y="1295" width="595" height="145" as="geometry" />
        </mxCell>
        <mxCell id="r_Lx60y4R6_hD9oL_kPP-142" value="" style="whiteSpace=wrap;html=1;fontSize=19;dashed=1;" parent="1" vertex="1">
          <mxGeometry x="1510" y="710" width="1060" height="410" as="geometry" />
        </mxCell>
        <mxCell id="r_Lx60y4R6_hD9oL_kPP-141" value="" style="whiteSpace=wrap;html=1;fontSize=19;dashed=1;" parent="1" vertex="1">
          <mxGeometry x="2590" y="710" width="690" height="510" as="geometry" />
        </mxCell>
        <mxCell id="r_Lx60y4R6_hD9oL_kPP-140" value="" style="whiteSpace=wrap;html=1;fontSize=19;dashed=1;" parent="1" vertex="1">
          <mxGeometry x="2610" y="1335" width="920" height="880" as="geometry" />
        </mxCell>
        <mxCell id="r_Lx60y4R6_hD9oL_kPP-138" value="" style="whiteSpace=wrap;html=1;fontSize=19;dashed=1;" parent="1" vertex="1">
          <mxGeometry x="1840" y="1340" width="740" height="400" as="geometry" />
        </mxCell>
        <mxCell id="r_Lx60y4R6_hD9oL_kPP-22" value="sdk模块" style="ellipse;whiteSpace=wrap;html=1;rounded=1;fontSize=20;fillColor=#1ba1e2;strokeColor=#006EAF;fontColor=#ffffff;" parent="1" vertex="1">
          <mxGeometry x="2008" y="730" width="102" height="70" as="geometry" />
        </mxCell>
        <mxCell id="r_Lx60y4R6_hD9oL_kPP-2" value="" style="rounded=1;whiteSpace=wrap;html=1;" parent="1" vertex="1">
          <mxGeometry x="1536" y="195" width="100" height="35" as="geometry" />
        </mxCell>
        <mxCell id="r_Lx60y4R6_hD9oL_kPP-3" value="&lt;font style=&quot;font-size: 20px;&quot;&gt;痛点分析&lt;/font&gt;" style="text;html=1;align=center;verticalAlign=middle;resizable=0;points=[];autosize=1;rounded=1;fillColor=#d80073;strokeColor=#A50040;fontColor=#ffffff;" parent="1" vertex="1">
          <mxGeometry x="1536" y="192.5" width="100" height="40" as="geometry" />
        </mxCell>
        <mxCell id="r_Lx60y4R6_hD9oL_kPP-4" value="一个项目提供三份工具：跑图跑视频、稳定性测试工具、自动化平台调用接入" style="text;html=1;align=center;verticalAlign=middle;resizable=0;points=[];autosize=1;strokeColor=none;fillColor=none;fontSize=20;rounded=1;" parent="1" vertex="1">
          <mxGeometry x="1700" y="175" width="700" height="40" as="geometry" />
        </mxCell>
        <mxCell id="r_Lx60y4R6_hD9oL_kPP-5" value="&lt;b&gt;不同SDK项目间接口差异大，不管接口属性(阻塞/非阻塞/同步/异步)，参数设置，功能逻辑&lt;/b&gt;" style="text;html=1;align=center;verticalAlign=middle;resizable=0;points=[];autosize=1;strokeColor=none;fillColor=none;fontSize=20;rounded=1;" parent="1" vertex="1">
          <mxGeometry x="1695" y="220" width="820" height="40" as="geometry" />
        </mxCell>
        <mxCell id="r_Lx60y4R6_hD9oL_kPP-6" value="&lt;b&gt;面对SDK项目迭代修改频繁，工具代码往往霰弹时修改(搜索全局符号，替换改动，针对枚举量的改动还需反复check头文件)&lt;/b&gt;" style="text;html=1;align=center;verticalAlign=middle;resizable=0;points=[];autosize=1;strokeColor=none;fillColor=none;fontSize=20;rounded=1;" parent="1" vertex="1">
          <mxGeometry x="1695" y="265" width="1120" height="40" as="geometry" />
        </mxCell>
        <mxCell id="r_Lx60y4R6_hD9oL_kPP-9" value="&lt;b&gt;新项目对原项目的代码复用程度低&lt;/b&gt;" style="text;html=1;align=center;verticalAlign=middle;resizable=0;points=[];autosize=1;strokeColor=none;fillColor=none;fontSize=20;rounded=1;" parent="1" vertex="1">
          <mxGeometry x="1700" y="320" width="320" height="40" as="geometry" />
        </mxCell>
        <mxCell id="r_Lx60y4R6_hD9oL_kPP-10" value="&lt;b&gt;当面临线程间同步的改动需求，往往破坏式修改&lt;/b&gt;" style="text;html=1;align=center;verticalAlign=middle;resizable=0;points=[];autosize=1;strokeColor=none;fillColor=none;fontSize=20;rounded=1;" parent="1" vertex="1">
          <mxGeometry x="1700" y="365" width="440" height="40" as="geometry" />
        </mxCell>
        <mxCell id="r_Lx60y4R6_hD9oL_kPP-11" value="&lt;span style=&quot;font-size: 20px;&quot;&gt;重构思路&lt;/span&gt;" style="text;html=1;align=center;verticalAlign=middle;resizable=0;points=[];autosize=1;rounded=1;fillColor=#008a00;strokeColor=#005700;fontColor=#ffffff;" parent="1" vertex="1">
          <mxGeometry x="1536" y="425" width="100" height="40" as="geometry" />
        </mxCell>
        <mxCell id="r_Lx60y4R6_hD9oL_kPP-13" value="&lt;b&gt;做好模块接口的抽象，隔离全局修改，面对模块依赖的改动，只修改接口实现&lt;/b&gt;" style="text;html=1;align=center;verticalAlign=middle;resizable=0;points=[];autosize=1;strokeColor=none;fillColor=none;fontSize=20;rounded=1;" parent="1" vertex="1">
          <mxGeometry x="1700" y="430" width="700" height="40" as="geometry" />
        </mxCell>
        <mxCell id="r_Lx60y4R6_hD9oL_kPP-15" value="&lt;b&gt;提高基础工具组件的易用性(跨平台，安全性)&lt;/b&gt;" style="text;html=1;align=center;verticalAlign=middle;resizable=0;points=[];autosize=1;strokeColor=none;fillColor=none;fontSize=20;rounded=1;" parent="1" vertex="1">
          <mxGeometry x="1695" y="480" width="420" height="40" as="geometry" />
        </mxCell>
        <mxCell id="r_Lx60y4R6_hD9oL_kPP-16" value="&lt;b&gt;配置交互功能统一管理&lt;/b&gt;" style="text;html=1;align=center;verticalAlign=middle;resizable=0;points=[];autosize=1;strokeColor=none;fillColor=none;fontSize=20;rounded=1;" parent="1" vertex="1">
          <mxGeometry x="1700" y="595" width="220" height="40" as="geometry" />
        </mxCell>
        <mxCell id="r_Lx60y4R6_hD9oL_kPP-17" value="&lt;b&gt;简化任务内容代码量，应对快速修改&lt;/b&gt;" style="text;html=1;align=center;verticalAlign=middle;resizable=0;points=[];autosize=1;strokeColor=none;fillColor=none;fontSize=20;rounded=1;" parent="1" vertex="1">
          <mxGeometry x="1700" y="540" width="340" height="40" as="geometry" />
        </mxCell>
        <mxCell id="r_Lx60y4R6_hD9oL_kPP-19" value="&lt;b&gt;&lt;font color=&quot;#ff0000&quot;&gt;全局单例封装：确保一个进程只有一个实例&lt;/font&gt;&lt;/b&gt;" style="text;html=1;align=center;verticalAlign=middle;resizable=0;points=[];autosize=1;strokeColor=none;fillColor=none;fontSize=20;rounded=1;" parent="1" vertex="1">
          <mxGeometry x="1578" y="755" width="400" height="40" as="geometry" />
        </mxCell>
        <mxCell id="r_Lx60y4R6_hD9oL_kPP-20" value="加入对接口的互斥同步保护(可开关)：&lt;br&gt;满足测试需求以及工具功能安全" style="text;html=1;align=center;verticalAlign=middle;resizable=0;points=[];autosize=1;strokeColor=none;fillColor=none;fontSize=20;rounded=1;" parent="1" vertex="1">
          <mxGeometry x="1558" y="845" width="360" height="60" as="geometry" />
        </mxCell>
        <mxCell id="r_Lx60y4R6_hD9oL_kPP-28" style="edgeStyle=orthogonalEdgeStyle;rounded=0;orthogonalLoop=1;jettySize=auto;html=1;exitX=0.5;exitY=0;exitDx=0;exitDy=0;entryX=0.5;entryY=1;entryDx=0;entryDy=0;fontSize=20;" parent="1" source="r_Lx60y4R6_hD9oL_kPP-26" target="r_Lx60y4R6_hD9oL_kPP-27" edge="1">
          <mxGeometry relative="1" as="geometry" />
        </mxCell>
        <mxCell id="r_Lx60y4R6_hD9oL_kPP-26" value="抽象接口类&lt;br&gt;（超集）" style="shape=parallelogram;perimeter=parallelogramPerimeter;whiteSpace=wrap;html=1;fixedSize=1;rounded=1;fontSize=20;fillColor=#60a917;fontColor=#ffffff;strokeColor=#2D7600;" parent="1" vertex="1">
          <mxGeometry x="1998" y="1030" width="140" height="70" as="geometry" />
        </mxCell>
        <mxCell id="r_Lx60y4R6_hD9oL_kPP-27" value="派生类&lt;br&gt;接口实现" style="shape=parallelogram;perimeter=parallelogramPerimeter;whiteSpace=wrap;html=1;fixedSize=1;rounded=1;fontSize=20;" parent="1" vertex="1">
          <mxGeometry x="2008" y="850" width="120" height="60" as="geometry" />
        </mxCell>
        <mxCell id="r_Lx60y4R6_hD9oL_kPP-29" value="根据当前sdk项目选择对应的接口进行实现，封装" style="text;html=1;align=center;verticalAlign=middle;resizable=0;points=[];autosize=1;strokeColor=none;fillColor=none;fontSize=20;rounded=1;" parent="1" vertex="1">
          <mxGeometry x="1558" y="910" width="450" height="40" as="geometry" />
        </mxCell>
        <mxCell id="r_Lx60y4R6_hD9oL_kPP-30" value="当发生sdk接口改动，只修改接口实现出，不修改全局" style="text;html=1;align=center;verticalAlign=middle;resizable=0;points=[];autosize=1;strokeColor=none;fillColor=none;fontSize=20;rounded=1;" parent="1" vertex="1">
          <mxGeometry x="1558" y="960" width="490" height="40" as="geometry" />
        </mxCell>
        <mxCell id="r_Lx60y4R6_hD9oL_kPP-31" value="&lt;b&gt;预定义统一的sdk调用符号&lt;/b&gt;" style="text;html=1;align=center;verticalAlign=middle;resizable=0;points=[];autosize=1;strokeColor=none;fillColor=none;fontSize=20;rounded=1;" parent="1" vertex="1">
          <mxGeometry x="1715" y="1065" width="260" height="40" as="geometry" />
        </mxCell>
        <mxCell id="r_Lx60y4R6_hD9oL_kPP-33" value="decode模块" style="ellipse;whiteSpace=wrap;html=1;rounded=1;fontSize=20;fillColor=#1ba1e2;strokeColor=#006EAF;fontColor=#ffffff;" parent="1" vertex="1">
          <mxGeometry x="2660" y="735" width="120" height="80" as="geometry" />
        </mxCell>
        <mxCell id="r_Lx60y4R6_hD9oL_kPP-36" style="edgeStyle=orthogonalEdgeStyle;rounded=0;orthogonalLoop=1;jettySize=auto;html=1;exitX=0.5;exitY=0;exitDx=0;exitDy=0;entryX=0.5;entryY=1;entryDx=0;entryDy=0;fontSize=20;" parent="1" source="r_Lx60y4R6_hD9oL_kPP-35" edge="1">
          <mxGeometry relative="1" as="geometry">
            <mxPoint x="2710" y="910" as="targetPoint" />
          </mxGeometry>
        </mxCell>
        <mxCell id="r_Lx60y4R6_hD9oL_kPP-35" value="抽象接口类&lt;br&gt;（超集）" style="shape=parallelogram;perimeter=parallelogramPerimeter;whiteSpace=wrap;html=1;fixedSize=1;rounded=1;fontSize=20;fillColor=#60a917;fontColor=#ffffff;strokeColor=#2D7600;" parent="1" vertex="1">
          <mxGeometry x="2640" y="1035" width="140" height="70" as="geometry" />
        </mxCell>
        <mxCell id="r_Lx60y4R6_hD9oL_kPP-37" value="视频" style="rounded=0;whiteSpace=wrap;html=1;fontSize=20;" parent="1" vertex="1">
          <mxGeometry x="2870" y="950" width="70" height="110" as="geometry" />
        </mxCell>
        <mxCell id="r_Lx60y4R6_hD9oL_kPP-38" value="针对不同解码方式，定义共存多个派生类实现" style="text;html=1;align=center;verticalAlign=middle;resizable=0;points=[];autosize=1;strokeColor=none;fillColor=none;fontSize=20;rounded=1;arcSize=50;" parent="1" vertex="1">
          <mxGeometry x="2800" y="830" width="420" height="40" as="geometry" />
        </mxCell>
        <mxCell id="r_Lx60y4R6_hD9oL_kPP-39" value="解码实现方式1" style="whiteSpace=wrap;html=1;rounded=1;fontSize=20;" parent="1" vertex="1">
          <mxGeometry x="2970" y="950" width="170" height="30" as="geometry" />
        </mxCell>
        <mxCell id="r_Lx60y4R6_hD9oL_kPP-40" value="图片" style="rounded=0;whiteSpace=wrap;html=1;fontSize=20;" parent="1" vertex="1">
          <mxGeometry x="2870" y="1090" width="70" height="110" as="geometry" />
        </mxCell>
        <mxCell id="r_Lx60y4R6_hD9oL_kPP-42" value="解码实现方式2" style="whiteSpace=wrap;html=1;rounded=1;fontSize=20;" parent="1" vertex="1">
          <mxGeometry x="2970" y="990" width="170" height="30" as="geometry" />
        </mxCell>
        <mxCell id="r_Lx60y4R6_hD9oL_kPP-43" value="解码实现方式3" style="whiteSpace=wrap;html=1;rounded=1;fontSize=20;" parent="1" vertex="1">
          <mxGeometry x="2970" y="1030" width="170" height="30" as="geometry" />
        </mxCell>
        <mxCell id="r_Lx60y4R6_hD9oL_kPP-44" value="解码实现方式1" style="whiteSpace=wrap;html=1;rounded=1;fontSize=20;" parent="1" vertex="1">
          <mxGeometry x="2970" y="1090" width="170" height="30" as="geometry" />
        </mxCell>
        <mxCell id="r_Lx60y4R6_hD9oL_kPP-45" value="解码实现方式2" style="whiteSpace=wrap;html=1;rounded=1;fontSize=20;" parent="1" vertex="1">
          <mxGeometry x="2970" y="1130" width="170" height="30" as="geometry" />
        </mxCell>
        <mxCell id="r_Lx60y4R6_hD9oL_kPP-46" value="..." style="whiteSpace=wrap;html=1;rounded=1;fontSize=20;" parent="1" vertex="1">
          <mxGeometry x="2970" y="1170" width="170" height="30" as="geometry" />
        </mxCell>
        <mxCell id="r_Lx60y4R6_hD9oL_kPP-47" value="派生类&lt;br&gt;接口实现" style="shape=parallelogram;perimeter=parallelogramPerimeter;whiteSpace=wrap;html=1;fixedSize=1;rounded=1;fontSize=20;" parent="1" vertex="1">
          <mxGeometry x="2650" y="850" width="120" height="60" as="geometry" />
        </mxCell>
        <mxCell id="r_Lx60y4R6_hD9oL_kPP-48" value="&lt;b&gt;&lt;font color=&quot;#007fff&quot;&gt;切换不同实现类的对象，切换解码功能&lt;/font&gt;&lt;/b&gt;" style="text;html=1;align=center;verticalAlign=middle;resizable=0;points=[];autosize=1;strokeColor=none;fillColor=none;fontSize=20;rounded=1;arcSize=50;" parent="1" vertex="1">
          <mxGeometry x="2800" y="870" width="360" height="40" as="geometry" />
        </mxCell>
        <mxCell id="r_Lx60y4R6_hD9oL_kPP-49" value="" style="shape=flexArrow;endArrow=classic;startArrow=classic;html=1;rounded=0;fontSize=20;" parent="1" edge="1">
          <mxGeometry width="100" height="100" relative="1" as="geometry">
            <mxPoint x="2190" y="975" as="sourcePoint" />
            <mxPoint x="2520" y="975" as="targetPoint" />
          </mxGeometry>
        </mxCell>
        <mxCell id="r_Lx60y4R6_hD9oL_kPP-50" value="sdk与解码的关联" style="text;html=1;align=center;verticalAlign=middle;resizable=0;points=[];autosize=1;strokeColor=none;fillColor=none;fontSize=20;rounded=1;" parent="1" vertex="1">
          <mxGeometry x="2270" y="985" width="170" height="40" as="geometry" />
        </mxCell>
        <mxCell id="r_Lx60y4R6_hD9oL_kPP-136" style="edgeStyle=orthogonalEdgeStyle;rounded=0;orthogonalLoop=1;jettySize=auto;html=1;exitX=0;exitY=0.5;exitDx=0;exitDy=0;fontSize=19;" parent="1" source="r_Lx60y4R6_hD9oL_kPP-52" edge="1">
          <mxGeometry relative="1" as="geometry">
            <mxPoint x="2140" y="875.4285714285716" as="targetPoint" />
          </mxGeometry>
        </mxCell>
        <mxCell id="r_Lx60y4R6_hD9oL_kPP-52" value="适配接口" style="shape=parallelogram;perimeter=parallelogramPerimeter;whiteSpace=wrap;html=1;fixedSize=1;rounded=1;fontSize=20;" parent="1" vertex="1">
          <mxGeometry x="2250" y="860" width="120" height="30" as="geometry" />
        </mxCell>
        <mxCell id="r_Lx60y4R6_hD9oL_kPP-53" value="&lt;b style=&quot;font-size: 18px;&quot;&gt;&lt;font color=&quot;#007fff&quot;&gt;参数：&lt;br&gt;传入不同的decode实现对象，选用不同的解码模块&lt;br&gt;解码模块执行的sdk相关回调任务(通常就是sdk的送帧)&lt;/font&gt;&lt;/b&gt;" style="text;html=1;align=center;verticalAlign=middle;resizable=0;points=[];autosize=1;strokeColor=none;fillColor=none;fontSize=20;rounded=1;" parent="1" vertex="1">
          <mxGeometry x="2100" y="750" width="460" height="90" as="geometry" />
        </mxCell>
        <mxCell id="r_Lx60y4R6_hD9oL_kPP-55" value="&lt;b&gt;预定义统一的解码调用符号&lt;/b&gt;" style="text;html=1;align=center;verticalAlign=middle;resizable=0;points=[];autosize=1;strokeColor=none;fillColor=none;fontSize=20;rounded=1;" parent="1" vertex="1">
          <mxGeometry x="2590" y="1110" width="260" height="40" as="geometry" />
        </mxCell>
        <mxCell id="r_Lx60y4R6_hD9oL_kPP-59" value="" style="shape=flexArrow;endArrow=classic;html=1;rounded=0;fontSize=20;" parent="1" edge="1">
          <mxGeometry width="50" height="50" relative="1" as="geometry">
            <mxPoint x="2066" y="1150" as="sourcePoint" />
            <mxPoint x="2066" y="1330" as="targetPoint" />
          </mxGeometry>
        </mxCell>
        <mxCell id="r_Lx60y4R6_hD9oL_kPP-61" value="&lt;font style=&quot;font-size: 20px;&quot;&gt;供task调用&lt;/font&gt;" style="text;html=1;align=center;verticalAlign=middle;resizable=0;points=[];autosize=1;strokeColor=none;fillColor=none;" parent="1" vertex="1">
          <mxGeometry x="2084" y="1215" width="120" height="40" as="geometry" />
        </mxCell>
        <mxCell id="r_Lx60y4R6_hD9oL_kPP-65" value="task&lt;br&gt;implementation" style="rhombus;whiteSpace=wrap;html=1;fontSize=19;fillColor=#6a00ff;fontColor=#ffffff;strokeColor=#3700CC;" parent="1" vertex="1">
          <mxGeometry x="1890" y="1360" width="368" height="290" as="geometry" />
        </mxCell>
        <mxCell id="r_Lx60y4R6_hD9oL_kPP-66" value="对任务描述信息的具体实现(函数定义)" style="text;html=1;align=center;verticalAlign=middle;resizable=0;points=[];autosize=1;strokeColor=none;fillColor=none;fontSize=19;" parent="1" vertex="1">
          <mxGeometry x="1918" y="1655" width="340" height="40" as="geometry" />
        </mxCell>
        <mxCell id="r_Lx60y4R6_hD9oL_kPP-67" value="task info&lt;br&gt;define" style="rhombus;whiteSpace=wrap;html=1;fontSize=19;fillColor=#6a00ff;fontColor=#ffffff;strokeColor=#3700CC;" parent="1" vertex="1">
          <mxGeometry x="2622.5" y="1355" width="355" height="325" as="geometry" />
        </mxCell>
        <mxCell id="r_Lx60y4R6_hD9oL_kPP-68" value="对任务描述信息的结构化存储(结构体)" style="text;html=1;align=center;verticalAlign=middle;resizable=0;points=[];autosize=1;strokeColor=none;fillColor=none;fontSize=19;" parent="1" vertex="1">
          <mxGeometry x="2630" y="1680" width="340" height="40" as="geometry" />
        </mxCell>
        <mxCell id="r_Lx60y4R6_hD9oL_kPP-69" value="启动处理接口" style="text;html=1;align=center;verticalAlign=middle;resizable=0;points=[];autosize=1;strokeColor=none;fillColor=none;fontSize=19;" parent="1" vertex="1">
          <mxGeometry x="2390" y="1460" width="140" height="40" as="geometry" />
        </mxCell>
        <mxCell id="r_Lx60y4R6_hD9oL_kPP-71" value="" style="shape=flexArrow;endArrow=classic;html=1;rounded=0;fontSize=19;" parent="1" edge="1">
          <mxGeometry width="50" height="50" relative="1" as="geometry">
            <mxPoint x="2540" y="1520" as="sourcePoint" />
            <mxPoint x="2340" y="1520" as="targetPoint" />
          </mxGeometry>
        </mxCell>
        <mxCell id="r_Lx60y4R6_hD9oL_kPP-75" value="cycle" style="html=1;shadow=0;dashed=0;align=center;verticalAlign=middle;shape=mxgraph.arrows2.uTurnArrow;dy=11;arrowHead=43;dx2=25;fontSize=19;" parent="1" vertex="1">
          <mxGeometry x="2020" y="1920" width="16.5" height="210" as="geometry" />
        </mxCell>
        <mxCell id="r_Lx60y4R6_hD9oL_kPP-76" value="&lt;font style=&quot;font-size: 28px;&quot;&gt;main&lt;br&gt;task array&lt;/font&gt;" style="text;html=1;align=center;verticalAlign=middle;resizable=0;points=[];autosize=1;strokeColor=none;fillColor=none;fontSize=19;" parent="1" vertex="1">
          <mxGeometry x="1901.5" y="2075" width="150" height="80" as="geometry" />
        </mxCell>
        <mxCell id="r_Lx60y4R6_hD9oL_kPP-78" value="task&lt;br&gt;run" style="rhombus;whiteSpace=wrap;html=1;fontSize=19;fillColor=#d80073;fontColor=#ffffff;strokeColor=#A50040;" parent="1" vertex="1">
          <mxGeometry x="2069" y="1969.49" width="88" height="100" as="geometry" />
        </mxCell>
        <mxCell id="r_Lx60y4R6_hD9oL_kPP-79" value="" style="shape=doubleArrow;whiteSpace=wrap;html=1;fontSize=22;rotation=89;" parent="1" vertex="1">
          <mxGeometry x="2668" y="1830" width="282" height="60" as="geometry" />
        </mxCell>
        <mxCell id="r_Lx60y4R6_hD9oL_kPP-94" value="user" style="shape=umlActor;verticalLabelPosition=bottom;verticalAlign=top;html=1;outlineConnect=0;fontSize=22;" parent="1" vertex="1">
          <mxGeometry x="2695" y="2030" width="75" height="130" as="geometry" />
        </mxCell>
        <mxCell id="r_Lx60y4R6_hD9oL_kPP-96" value="配置文件json" style="rounded=1;whiteSpace=wrap;html=1;fontSize=22;" parent="1" vertex="1">
          <mxGeometry x="2810" y="2050" width="140" height="30" as="geometry" />
        </mxCell>
        <mxCell id="r_Lx60y4R6_hD9oL_kPP-98" value="终端命令行" style="rounded=1;whiteSpace=wrap;html=1;fontSize=22;" parent="1" vertex="1">
          <mxGeometry x="2810" y="2100" width="130" height="30" as="geometry" />
        </mxCell>
        <mxCell id="r_Lx60y4R6_hD9oL_kPP-100" value="...." style="rounded=1;whiteSpace=wrap;html=1;fontSize=22;" parent="1" vertex="1">
          <mxGeometry x="2810" y="2150" width="130" height="30" as="geometry" />
        </mxCell>
        <mxCell id="r_Lx60y4R6_hD9oL_kPP-101" value="task manager&lt;br&gt;模块" style="ellipse;whiteSpace=wrap;html=1;rounded=1;fontSize=20;fillColor=#1ba1e2;strokeColor=#006EAF;fontColor=#ffffff;" parent="1" vertex="1">
          <mxGeometry x="3050" y="1620" width="160" height="90" as="geometry" />
        </mxCell>
        <mxCell id="r_Lx60y4R6_hD9oL_kPP-103" value="外在交互解析与任务信息的互转|映射" style="text;html=1;align=center;verticalAlign=middle;resizable=0;points=[];autosize=1;strokeColor=none;fillColor=none;fontSize=22;" parent="1" vertex="1">
          <mxGeometry x="2895" y="1750" width="380" height="40" as="geometry" />
        </mxCell>
        <mxCell id="r_Lx60y4R6_hD9oL_kPP-104" value="校验交互逻辑，配置文件语法格式问题，提供具体错误反馈" style="text;html=1;align=center;verticalAlign=middle;resizable=0;points=[];autosize=1;strokeColor=none;fillColor=none;fontSize=22;" parent="1" vertex="1">
          <mxGeometry x="2883.9" y="1800" width="600" height="40" as="geometry" />
        </mxCell>
        <mxCell id="r_Lx60y4R6_hD9oL_kPP-106" value="解析信息，对任务逻辑校验" style="text;html=1;align=center;verticalAlign=middle;resizable=0;points=[];autosize=1;strokeColor=none;fillColor=none;fontSize=22;" parent="1" vertex="1">
          <mxGeometry x="2883.9" y="1850" width="290" height="40" as="geometry" />
        </mxCell>
        <mxCell id="r_Lx60y4R6_hD9oL_kPP-112" value="......" style="text;html=1;align=center;verticalAlign=middle;resizable=0;points=[];autosize=1;strokeColor=none;fillColor=none;fontSize=22;" parent="1" vertex="1">
          <mxGeometry x="2895" y="1890" width="60" height="40" as="geometry" />
        </mxCell>
        <mxCell id="r_Lx60y4R6_hD9oL_kPP-114" value="针对sdk大量枚举定义" style="text;html=1;align=center;verticalAlign=middle;resizable=0;points=[];autosize=1;strokeColor=none;fillColor=none;fontSize=22;" parent="1" vertex="1">
          <mxGeometry x="560" y="1302.5" width="230" height="40" as="geometry" />
        </mxCell>
        <mxCell id="r_Lx60y4R6_hD9oL_kPP-119" value="预设计枚举-字符串互转macro模板" style="text;html=1;align=center;verticalAlign=middle;resizable=0;points=[];autosize=1;strokeColor=none;fillColor=none;fontSize=22;" parent="1" vertex="1">
          <mxGeometry x="555" y="1352.5" width="360" height="40" as="geometry" />
        </mxCell>
        <mxCell id="r_Lx60y4R6_hD9oL_kPP-120" value="快速定义大量互转函数，减少代码量(几百行缩减至几十行)" style="text;html=1;align=center;verticalAlign=middle;resizable=0;points=[];autosize=1;strokeColor=none;fillColor=none;fontSize=22;" parent="1" vertex="1">
          <mxGeometry x="555" y="1392.5" width="590" height="40" as="geometry" />
        </mxCell>
        <mxCell id="r_Lx60y4R6_hD9oL_kPP-124" value="&lt;font style=&quot;font-size: 25px;&quot;&gt;json库简单封装&lt;/font&gt;" style="text;html=1;align=center;verticalAlign=middle;resizable=0;points=[];autosize=1;strokeColor=none;fillColor=none;fontSize=19;" parent="1" vertex="1">
          <mxGeometry x="560" y="1981.99" width="190" height="40" as="geometry" />
        </mxCell>
        <mxCell id="r_Lx60y4R6_hD9oL_kPP-126" value="&lt;font style=&quot;font-size: 25px;&quot;&gt;计时器&lt;/font&gt;" style="text;html=1;align=center;verticalAlign=middle;resizable=0;points=[];autosize=1;strokeColor=none;fillColor=none;fontSize=19;" parent="1" vertex="1">
          <mxGeometry x="555" y="2120" width="100" height="40" as="geometry" />
        </mxCell>
        <mxCell id="r_Lx60y4R6_hD9oL_kPP-127" value="&lt;font style=&quot;font-size: 25px;&quot;&gt;跨平台，不同精度耗时统计以及时间戳&lt;/font&gt;" style="text;html=1;align=center;verticalAlign=middle;resizable=0;points=[];autosize=1;strokeColor=none;fillColor=none;fontSize=19;" parent="1" vertex="1">
          <mxGeometry x="555" y="2160" width="450" height="40" as="geometry" />
        </mxCell>
        <mxCell id="r_Lx60y4R6_hD9oL_kPP-132" value="适配跑图工具" style="rounded=1;whiteSpace=wrap;html=1;fontSize=22;fillColor=#e1d5e7;strokeColor=#9673a6;" parent="1" vertex="1">
          <mxGeometry x="2895" y="1944.49" width="140" height="31.01" as="geometry" />
        </mxCell>
        <mxCell id="r_Lx60y4R6_hD9oL_kPP-133" value="适配平台接入" style="rounded=1;whiteSpace=wrap;html=1;fontSize=22;fillColor=#e1d5e7;strokeColor=#9673a6;" parent="1" vertex="1">
          <mxGeometry x="3055" y="1944.99" width="157.8" height="30" as="geometry" />
        </mxCell>
        <mxCell id="r_Lx60y4R6_hD9oL_kPP-135" value="适配稳定性工具" style="rounded=1;whiteSpace=wrap;html=1;fontSize=22;fillColor=#e1d5e7;strokeColor=#9673a6;" parent="1" vertex="1">
          <mxGeometry x="3225" y="1944.49" width="173.9" height="30" as="geometry" />
        </mxCell>
        <mxCell id="r_Lx60y4R6_hD9oL_kPP-137" value="工具组件封装" style="shape=process;whiteSpace=wrap;html=1;backgroundOutline=1;fontSize=19;fillColor=#1ba1e2;fontColor=#ffffff;strokeColor=#006EAF;" parent="1" vertex="1">
          <mxGeometry x="1290" y="1302.5" width="149" height="65" as="geometry" />
        </mxCell>
        <mxCell id="r_Lx60y4R6_hD9oL_kPP-144" value="&lt;font style=&quot;font-size: 24px;&quot;&gt;简单定时器&lt;/font&gt;" style="text;html=1;align=center;verticalAlign=middle;resizable=0;points=[];autosize=1;strokeColor=none;fillColor=none;fontSize=19;" parent="1" vertex="1">
          <mxGeometry x="560" y="1537.5" width="140" height="40" as="geometry" />
        </mxCell>
        <mxCell id="r_Lx60y4R6_hD9oL_kPP-145" value="异步定时延后任务" style="text;html=1;align=center;verticalAlign=middle;resizable=0;points=[];autosize=1;strokeColor=none;fillColor=none;fontSize=24;" parent="1" vertex="1">
          <mxGeometry x="555" y="1590" width="220" height="40" as="geometry" />
        </mxCell>
        <mxCell id="r_Lx60y4R6_hD9oL_kPP-146" value="异步定时循环任务" style="text;html=1;align=center;verticalAlign=middle;resizable=0;points=[];autosize=1;strokeColor=none;fillColor=none;fontSize=24;" parent="1" vertex="1">
          <mxGeometry x="555" y="1640" width="220" height="40" as="geometry" />
        </mxCell>
        <mxCell id="r_Lx60y4R6_hD9oL_kPP-147" value="异步循环任务超时控制" style="text;html=1;align=center;verticalAlign=middle;resizable=0;points=[];autosize=1;strokeColor=none;fillColor=none;fontSize=24;" parent="1" vertex="1">
          <mxGeometry x="560" y="1695" width="260" height="40" as="geometry" />
        </mxCell>
        <mxCell id="r_Lx60y4R6_hD9oL_kPP-150" value="线程间共享读写对象模板" style="text;html=1;align=center;verticalAlign=middle;resizable=0;points=[];autosize=1;strokeColor=none;fillColor=none;fontSize=24;" parent="1" vertex="1">
          <mxGeometry x="545" y="1827.5" width="290" height="40" as="geometry" />
        </mxCell>
        <mxCell id="r_Lx60y4R6_hD9oL_kPP-167" value="对象内含互斥锁，条件变量，提供异常安全，减轻编码负担，代码复复杂度" style="text;html=1;align=center;verticalAlign=middle;resizable=0;points=[];autosize=1;strokeColor=none;fillColor=none;fontSize=24;" parent="1" vertex="1">
          <mxGeometry x="545" y="1877.5" width="820" height="40" as="geometry" />
        </mxCell>
        <mxCell id="r_Lx60y4R6_hD9oL_kPP-170" value="&lt;font style=&quot;font-size: 25px;&quot;&gt;对json操作进行简单的异常捕获封装，提供充足的报错反馈&lt;/font&gt;" style="text;html=1;align=center;verticalAlign=middle;resizable=0;points=[];autosize=1;strokeColor=none;fillColor=none;fontSize=19;" parent="1" vertex="1">
          <mxGeometry x="550" y="2021.99" width="670" height="40" as="geometry" />
        </mxCell>
        <mxCell id="r_Lx60y4R6_hD9oL_kPP-181" value="&lt;b&gt;一个项目提供三份工具：跑图跑视频、稳定性测试工具、自动化平台调用接入&lt;/b&gt;" style="text;html=1;align=center;verticalAlign=middle;resizable=0;points=[];autosize=1;strokeColor=none;fillColor=none;fontSize=20;rounded=1;" parent="1" vertex="1">
          <mxGeometry x="1700" y="175" width="700" height="40" as="geometry" />
        </mxCell>
        <mxCell id="r_Lx60y4R6_hD9oL_kPP-185" value="&lt;b&gt;xjf2613&lt;/b&gt;" style="text;html=1;align=center;verticalAlign=middle;resizable=0;points=[];autosize=1;strokeColor=none;fillColor=none;fontSize=18;fontFamily=Helvetica;fontColor=#000000;" parent="1" vertex="1">
          <mxGeometry x="3682" y="2298" width="80" height="40" as="geometry" />
        </mxCell>
        <mxCell id="kOqXvXwqG980JL6K90Ld-2" value="&lt;font style=&quot;font-size: 27px;&quot;&gt;main.cpp&lt;/font&gt;" style="shape=note;whiteSpace=wrap;html=1;backgroundOutline=1;darkOpacity=0.05;fontSize=23;fillColor=#b1ddf0;strokeColor=#10739e;" parent="1" vertex="1">
          <mxGeometry x="2190" y="2030" width="130" height="80" as="geometry" />
        </mxCell>
        <mxCell id="kOqXvXwqG980JL6K90Ld-3" value="&lt;font style=&quot;font-size: 27px;&quot;&gt;main.hpp&lt;/font&gt;" style="shape=note;whiteSpace=wrap;html=1;backgroundOutline=1;darkOpacity=0.05;fontSize=23;fillColor=#b1ddf0;strokeColor=#10739e;" parent="1" vertex="1">
          <mxGeometry x="1840" y="1754" width="130" height="80" as="geometry" />
        </mxCell>
        <mxCell id="kOqXvXwqG980JL6K90Ld-4" value="&lt;span style=&quot;font-size: 27px;&quot;&gt;还在封装&lt;/span&gt;" style="shape=note;whiteSpace=wrap;html=1;backgroundOutline=1;darkOpacity=0.05;fontSize=23;fillColor=#b1ddf0;strokeColor=#10739e;" parent="1" vertex="1">
          <mxGeometry x="3300" y="710" width="152" height="130" as="geometry" />
        </mxCell>
        <mxCell id="kOqXvXwqG980JL6K90Ld-5" value="&lt;font style=&quot;font-size: 27px;&quot;&gt;sdk-pkg.hpp&lt;/font&gt;" style="shape=note;whiteSpace=wrap;html=1;backgroundOutline=1;darkOpacity=0.05;fontSize=23;fillColor=#b1ddf0;strokeColor=#10739e;" parent="1" vertex="1">
          <mxGeometry x="3570" y="1332.5" width="210" height="80" as="geometry" />
        </mxCell>
        <mxCell id="kOqXvXwqG980JL6K90Ld-8" value="&lt;font style=&quot;font-size: 27px;&quot;&gt;sync.hpp&lt;/font&gt;" style="shape=note;whiteSpace=wrap;html=1;backgroundOutline=1;darkOpacity=0.05;fontSize=23;fillColor=#b1ddf0;strokeColor=#10739e;" parent="1" vertex="1">
          <mxGeometry x="370" y="1834" width="130" height="80" as="geometry" />
        </mxCell>
        <mxCell id="kOqXvXwqG980JL6K90Ld-9" value="&lt;span style=&quot;font-size: 27px;&quot;&gt;还在封装中，未加入&lt;/span&gt;" style="shape=note;whiteSpace=wrap;html=1;backgroundOutline=1;darkOpacity=0.05;fontSize=23;fillColor=#b1ddf0;strokeColor=#10739e;" parent="1" vertex="1">
          <mxGeometry x="339" y="1562.5" width="150" height="87.5" as="geometry" />
        </mxCell>
        <mxCell id="kOqXvXwqG980JL6K90Ld-16" value="" style="edgeStyle=orthogonalEdgeStyle;rounded=0;orthogonalLoop=1;jettySize=auto;html=1;fontSize=27;" parent="1" source="kOqXvXwqG980JL6K90Ld-10" target="kOqXvXwqG980JL6K90Ld-15" edge="1">
          <mxGeometry relative="1" as="geometry" />
        </mxCell>
        <mxCell id="kOqXvXwqG980JL6K90Ld-10" value="&lt;span style=&quot;font-size: 27px;&quot;&gt;EnumAdaptMacro.hpp&lt;/span&gt;" style="shape=note;whiteSpace=wrap;html=1;backgroundOutline=1;darkOpacity=0.05;fontSize=23;fillColor=#b1ddf0;strokeColor=#10739e;" parent="1" vertex="1">
          <mxGeometry x="191" y="1310" width="329" height="67.5" as="geometry" />
        </mxCell>
        <mxCell id="kOqXvXwqG980JL6K90Ld-11" value="&lt;span style=&quot;font-size: 27px;&quot;&gt;threadpool.hpp&lt;/span&gt;" style="shape=note;whiteSpace=wrap;html=1;backgroundOutline=1;darkOpacity=0.05;fontSize=23;fillColor=#b1ddf0;strokeColor=#10739e;" parent="1" vertex="1">
          <mxGeometry x="335" y="1660" width="180" height="80" as="geometry" />
        </mxCell>
        <mxCell id="kOqXvXwqG980JL6K90Ld-13" value="&lt;span style=&quot;font-size: 27px;&quot;&gt;sync.hpp&lt;/span&gt;" style="shape=note;whiteSpace=wrap;html=1;backgroundOutline=1;darkOpacity=0.05;fontSize=23;fillColor=#b1ddf0;strokeColor=#10739e;" parent="1" vertex="1">
          <mxGeometry x="365" y="2127.5" width="150" height="87.5" as="geometry" />
        </mxCell>
        <mxCell id="kOqXvXwqG980JL6K90Ld-14" value="&lt;span style=&quot;font-size: 27px;&quot;&gt;还未封装完成，当前工程直接调用sdk符号&lt;/span&gt;" style="shape=note;whiteSpace=wrap;html=1;backgroundOutline=1;darkOpacity=0.05;fontSize=23;fillColor=#b1ddf0;strokeColor=#10739e;" parent="1" vertex="1">
          <mxGeometry x="1300" y="730" width="182" height="145" as="geometry" />
        </mxCell>
        <mxCell id="kOqXvXwqG980JL6K90Ld-15" value="&lt;span style=&quot;font-size: 27px;&quot;&gt;在MyAdapt.cpp中使用&lt;/span&gt;" style="shape=note;whiteSpace=wrap;html=1;backgroundOutline=1;darkOpacity=0.05;fontSize=23;fillColor=#b1ddf0;strokeColor=#10739e;" parent="1" vertex="1">
          <mxGeometry x="191" y="1378.75" width="329" height="67.5" as="geometry" />
        </mxCell>
        <mxCell id="kOqXvXwqG980JL6K90Ld-31" style="edgeStyle=orthogonalEdgeStyle;rounded=0;orthogonalLoop=1;jettySize=auto;html=1;exitX=0.5;exitY=1;exitDx=0;exitDy=0;fontSize=27;" parent="1" source="kOqXvXwqG980JL6K90Ld-17" edge="1">
          <mxGeometry relative="1" as="geometry">
            <mxPoint x="580" y="450" as="targetPoint" />
          </mxGeometry>
        </mxCell>
        <mxCell id="kOqXvXwqG980JL6K90Ld-17" value="流程1" style="whiteSpace=wrap;html=1;fontSize=27;" parent="1" vertex="1">
          <mxGeometry x="520" y="330" width="120" height="60" as="geometry" />
        </mxCell>
        <mxCell id="kOqXvXwqG980JL6K90Ld-38" style="edgeStyle=orthogonalEdgeStyle;rounded=0;orthogonalLoop=1;jettySize=auto;html=1;exitX=0.25;exitY=1;exitDx=0;exitDy=0;fontSize=27;" parent="1" source="kOqXvXwqG980JL6K90Ld-19" edge="1">
          <mxGeometry relative="1" as="geometry">
            <mxPoint x="586" y="580" as="targetPoint" />
          </mxGeometry>
        </mxCell>
        <mxCell id="kOqXvXwqG980JL6K90Ld-19" value="增加task逻辑需求" style="whiteSpace=wrap;html=1;fontSize=27;" parent="1" vertex="1">
          <mxGeometry x="520" y="460" width="260" height="60" as="geometry" />
        </mxCell>
        <mxCell id="kOqXvXwqG980JL6K90Ld-33" style="edgeStyle=orthogonalEdgeStyle;rounded=0;orthogonalLoop=1;jettySize=auto;html=1;exitX=0.25;exitY=1;exitDx=0;exitDy=0;fontSize=27;" parent="1" source="kOqXvXwqG980JL6K90Ld-21" edge="1">
          <mxGeometry relative="1" as="geometry">
            <mxPoint x="588" y="710" as="targetPoint" />
          </mxGeometry>
        </mxCell>
        <mxCell id="kOqXvXwqG980JL6K90Ld-21" value="改动task info 字段" style="whiteSpace=wrap;html=1;fontSize=27;" parent="1" vertex="1">
          <mxGeometry x="520" y="584.5" width="270" height="55.5" as="geometry" />
        </mxCell>
        <mxCell id="kOqXvXwqG980JL6K90Ld-40" style="edgeStyle=orthogonalEdgeStyle;rounded=0;orthogonalLoop=1;jettySize=auto;html=1;exitX=0.5;exitY=1;exitDx=0;exitDy=0;fontSize=27;" parent="1" source="kOqXvXwqG980JL6K90Ld-22" edge="1">
          <mxGeometry relative="1" as="geometry">
            <mxPoint x="710" y="840" as="targetPoint" />
          </mxGeometry>
        </mxCell>
        <mxCell id="kOqXvXwqG980JL6K90Ld-22" value="task manager 管理函数同步" style="whiteSpace=wrap;html=1;fontSize=27;" parent="1" vertex="1">
          <mxGeometry x="520" y="720" width="380" height="70" as="geometry" />
        </mxCell>
        <mxCell id="kOqXvXwqG980JL6K90Ld-23" value="task 任务实现添加新逻辑" style="whiteSpace=wrap;html=1;fontSize=27;" parent="1" vertex="1">
          <mxGeometry x="520" y="850" width="360" height="50" as="geometry" />
        </mxCell>
        <mxCell id="kOqXvXwqG980JL6K90Ld-36" style="edgeStyle=orthogonalEdgeStyle;rounded=0;orthogonalLoop=1;jettySize=auto;html=1;exitX=0.5;exitY=1;exitDx=0;exitDy=0;entryX=0.5;entryY=0;entryDx=0;entryDy=0;fontSize=27;" parent="1" source="kOqXvXwqG980JL6K90Ld-27" target="kOqXvXwqG980JL6K90Ld-29" edge="1">
          <mxGeometry relative="1" as="geometry" />
        </mxCell>
        <mxCell id="kOqXvXwqG980JL6K90Ld-27" value="流程2" style="whiteSpace=wrap;html=1;fontSize=27;" parent="1" vertex="1">
          <mxGeometry x="1005" y="330" width="120" height="60" as="geometry" />
        </mxCell>
        <mxCell id="kOqXvXwqG980JL6K90Ld-37" style="edgeStyle=orthogonalEdgeStyle;rounded=0;orthogonalLoop=1;jettySize=auto;html=1;exitX=0.5;exitY=1;exitDx=0;exitDy=0;fontSize=27;" parent="1" source="kOqXvXwqG980JL6K90Ld-29" edge="1">
          <mxGeometry relative="1" as="geometry">
            <mxPoint x="1066" y="570" as="targetPoint" />
          </mxGeometry>
        </mxCell>
        <mxCell id="kOqXvXwqG980JL6K90Ld-29" value="sdk更新" style="whiteSpace=wrap;html=1;fontSize=27;" parent="1" vertex="1">
          <mxGeometry x="1005" y="460" width="120" height="60" as="geometry" />
        </mxCell>
        <mxCell id="kOqXvXwqG980JL6K90Ld-30" value="改动sdk封装类" style="whiteSpace=wrap;html=1;fontSize=27;" parent="1" vertex="1">
          <mxGeometry x="1005" y="580" width="210" height="50" as="geometry" />
        </mxCell>
        <mxCell id="kOqXvXwqG980JL6K90Ld-41" value="&lt;font color=&quot;#cc0000&quot;&gt;加入符号调用控制开关&lt;/font&gt;" style="text;html=1;align=center;verticalAlign=middle;resizable=0;points=[];autosize=1;strokeColor=none;fillColor=none;fontSize=27;" parent="1" vertex="1">
          <mxGeometry x="1155" y="965" width="290" height="50" as="geometry" />
        </mxCell>
        <mxCell id="kOqXvXwqG980JL6K90Ld-42" value="用于排查工具 sdk的内存泄露" style="text;html=1;align=center;verticalAlign=middle;resizable=0;points=[];autosize=1;strokeColor=none;fillColor=none;fontSize=27;fontColor=#CC0000;" parent="1" vertex="1">
          <mxGeometry x="1145" y="1025" width="370" height="50" as="geometry" />
        </mxCell>
        <mxCell id="kOqXvXwqG980JL6K90Ld-43" value="项目工程结构" style="whiteSpace=wrap;html=1;fontSize=27;fontColor=#CC0000;" parent="1" vertex="1">
          <mxGeometry x="3840" y="480" width="280" height="42" as="geometry" />
        </mxCell>
        <mxCell id="kOqXvXwqG980JL6K90Ld-45" value="sdk-pkg" style="whiteSpace=wrap;html=1;fontSize=27;fontColor=#CC0000;" parent="1" vertex="1">
          <mxGeometry x="3840" y="695" width="530" height="55" as="geometry" />
        </mxCell>
        <mxCell id="kOqXvXwqG980JL6K90Ld-48" value="sdk-enum-string-convert.hpp" style="ellipse;whiteSpace=wrap;html=1;fontSize=27;fontColor=#CC0000;" parent="1" vertex="1">
          <mxGeometry x="3870" y="775" width="220" height="100" as="geometry" />
        </mxCell>
        <mxCell id="kOqXvXwqG980JL6K90Ld-49" value="component" style="whiteSpace=wrap;html=1;fontSize=27;fontColor=#CC0000;" parent="1" vertex="1">
          <mxGeometry x="4390" y="695" width="500" height="55" as="geometry" />
        </mxCell>
        <mxCell id="kOqXvXwqG980JL6K90Ld-50" value="threadpool" style="ellipse;whiteSpace=wrap;html=1;fontSize=27;fontColor=#CC0000;" parent="1" vertex="1">
          <mxGeometry x="4410" y="775" width="220" height="100" as="geometry" />
        </mxCell>
        <mxCell id="kOqXvXwqG980JL6K90Ld-52" value="timer" style="ellipse;whiteSpace=wrap;html=1;fontSize=27;fontColor=#CC0000;" parent="1" vertex="1">
          <mxGeometry x="4660" y="775" width="220" height="100" as="geometry" />
        </mxCell>
        <mxCell id="kOqXvXwqG980JL6K90Ld-53" value="clocker" style="ellipse;whiteSpace=wrap;html=1;fontSize=27;fontColor=#CC0000;" parent="1" vertex="1">
          <mxGeometry x="4410" y="905" width="220" height="100" as="geometry" />
        </mxCell>
        <mxCell id="kOqXvXwqG980JL6K90Ld-54" value="img decoder" style="ellipse;whiteSpace=wrap;html=1;fontSize=27;fontColor=#CC0000;" parent="1" vertex="1">
          <mxGeometry x="4670" y="905" width="220" height="100" as="geometry" />
        </mxCell>
        <mxCell id="kOqXvXwqG980JL6K90Ld-55" value="video decoder" style="ellipse;whiteSpace=wrap;html=1;fontSize=27;fontColor=#CC0000;" parent="1" vertex="1">
          <mxGeometry x="4410" y="1040" width="220" height="100" as="geometry" />
        </mxCell>
        <mxCell id="kOqXvXwqG980JL6K90Ld-56" value="decoder base" style="ellipse;whiteSpace=wrap;html=1;fontSize=27;fontColor=#CC0000;" parent="1" vertex="1">
          <mxGeometry x="4660" y="1035" width="220" height="100" as="geometry" />
        </mxCell>
        <mxCell id="kOqXvXwqG980JL6K90Ld-57" value="singleton" style="ellipse;whiteSpace=wrap;html=1;fontSize=27;fontColor=#CC0000;" parent="1" vertex="1">
          <mxGeometry x="4410" y="1185" width="220" height="100" as="geometry" />
        </mxCell>
        <mxCell id="kOqXvXwqG980JL6K90Ld-58" value="syncbuff" style="ellipse;whiteSpace=wrap;html=1;fontSize=27;fontColor=#CC0000;" parent="1" vertex="1">
          <mxGeometry x="4660" y="1185" width="220" height="100" as="geometry" />
        </mxCell>
        <mxCell id="kOqXvXwqG980JL6K90Ld-59" value="global define" style="ellipse;whiteSpace=wrap;html=1;fontSize=27;fontColor=#CC0000;" parent="1" vertex="1">
          <mxGeometry x="4640" y="1528" width="220" height="100" as="geometry" />
        </mxCell>
        <mxCell id="kOqXvXwqG980JL6K90Ld-60" value="sdk-base" style="ellipse;whiteSpace=wrap;html=1;fontSize=27;fontColor=#CC0000;" parent="1" vertex="1">
          <mxGeometry x="4140" y="775" width="220" height="100" as="geometry" />
        </mxCell>
        <mxCell id="kOqXvXwqG980JL6K90Ld-61" value="sdk-impl" style="ellipse;whiteSpace=wrap;html=1;fontSize=27;fontColor=#CC0000;" parent="1" vertex="1">
          <mxGeometry x="4140" y="905" width="220" height="100" as="geometry" />
        </mxCell>
        <mxCell id="kOqXvXwqG980JL6K90Ld-62" style="edgeStyle=orthogonalEdgeStyle;rounded=0;orthogonalLoop=1;jettySize=auto;html=1;exitX=0.5;exitY=1;exitDx=0;exitDy=0;fontSize=27;fontColor=#CC0000;" parent="1" source="kOqXvXwqG980JL6K90Ld-59" target="kOqXvXwqG980JL6K90Ld-59" edge="1">
          <mxGeometry relative="1" as="geometry" />
        </mxCell>
        <mxCell id="kOqXvXwqG980JL6K90Ld-63" value="enum convert" style="ellipse;whiteSpace=wrap;html=1;fontSize=27;fontColor=#CC0000;" parent="1" vertex="1">
          <mxGeometry x="4410" y="1312.5" width="220" height="100" as="geometry" />
        </mxCell>
        <mxCell id="kOqXvXwqG980JL6K90Ld-64" value="json-pkg" style="ellipse;whiteSpace=wrap;html=1;fontSize=27;fontColor=#CC0000;" parent="1" vertex="1">
          <mxGeometry x="4660" y="1310" width="220" height="100" as="geometry" />
        </mxCell>
        <mxCell id="kOqXvXwqG980JL6K90Ld-66" value="sdk-callback" style="ellipse;whiteSpace=wrap;html=1;fontSize=27;fontColor=#CC0000;" parent="1" vertex="1">
          <mxGeometry x="3870" y="905" width="220" height="100" as="geometry" />
        </mxCell>
        <mxCell id="kOqXvXwqG980JL6K90Ld-67" value="logic" style="whiteSpace=wrap;html=1;fontSize=27;fontColor=#CC0000;" parent="1" vertex="1">
          <mxGeometry x="3840" y="1440" width="1050" height="56" as="geometry" />
        </mxCell>
        <mxCell id="kOqXvXwqG980JL6K90Ld-68" value="interaction manager" style="ellipse;whiteSpace=wrap;html=1;fontSize=27;fontColor=#CC0000;" parent="1" vertex="1">
          <mxGeometry x="4130" y="1529.25" width="220" height="100" as="geometry" />
        </mxCell>
        <mxCell id="kOqXvXwqG980JL6K90Ld-69" value="task manager" style="ellipse;whiteSpace=wrap;html=1;fontSize=27;fontColor=#CC0000;" parent="1" vertex="1">
          <mxGeometry x="4380" y="1528" width="220" height="100" as="geometry" />
        </mxCell>
        <mxCell id="kOqXvXwqG980JL6K90Ld-70" value="main run" style="ellipse;whiteSpace=wrap;html=1;fontSize=27;fontColor=#CC0000;" parent="1" vertex="1">
          <mxGeometry x="3870" y="1530.5" width="220" height="97.5" as="geometry" />
        </mxCell>
        <mxCell id="kOqXvXwqG980JL6K90Ld-71" value="src" style="whiteSpace=wrap;html=1;fontSize=27;fontColor=#CC0000;" parent="1" vertex="1">
          <mxGeometry x="3840" y="584" width="1050" height="56" as="geometry" />
        </mxCell>
        <mxCell id="kOqXvXwqG980JL6K90Ld-72" value="engineering folder" style="whiteSpace=wrap;html=1;fontSize=27;fontColor=#CC0000;" parent="1" vertex="1">
          <mxGeometry x="3830" y="1770" width="1780" height="70" as="geometry" />
        </mxCell>
        <mxCell id="kOqXvXwqG980JL6K90Ld-73" value=".git" style="whiteSpace=wrap;html=1;fontSize=27;fontColor=#CC0000;" parent="1" vertex="1">
          <mxGeometry x="3830" y="1867.5" width="120" height="60" as="geometry" />
        </mxCell>
        <mxCell id="kOqXvXwqG980JL6K90Ld-74" value=".vscode" style="whiteSpace=wrap;html=1;fontSize=27;fontColor=#CC0000;" parent="1" vertex="1">
          <mxGeometry x="3990" y="1867.5" width="120" height="60" as="geometry" />
        </mxCell>
        <mxCell id="kOqXvXwqG980JL6K90Ld-75" value="build" style="whiteSpace=wrap;html=1;fontSize=27;fontColor=#CC0000;" parent="1" vertex="1">
          <mxGeometry x="4150" y="1867.5" width="120" height="60" as="geometry" />
        </mxCell>
        <mxCell id="kOqXvXwqG980JL6K90Ld-76" value="script" style="whiteSpace=wrap;html=1;fontSize=27;fontColor=#CC0000;" parent="1" vertex="1">
          <mxGeometry x="4310" y="1867.5" width="120" height="60" as="geometry" />
        </mxCell>
        <mxCell id="kOqXvXwqG980JL6K90Ld-77" value="src" style="whiteSpace=wrap;html=1;fontSize=27;fontColor=#CC0000;" parent="1" vertex="1">
          <mxGeometry x="4470" y="1867.5" width="120" height="60" as="geometry" />
        </mxCell>
        <mxCell id="kOqXvXwqG980JL6K90Ld-78" value="unit-test" style="whiteSpace=wrap;html=1;fontSize=27;fontColor=#CC0000;" parent="1" vertex="1">
          <mxGeometry x="4630" y="1867.5" width="120" height="60" as="geometry" />
        </mxCell>
        <mxCell id="kOqXvXwqG980JL6K90Ld-79" value="focus.sh" style="ellipse;whiteSpace=wrap;html=1;fontSize=27;fontColor=#CC0000;" parent="1" vertex="1">
          <mxGeometry x="4800" y="1865" width="140" height="62.5" as="geometry" />
        </mxCell>
        <mxCell id="kOqXvXwqG980JL6K90Ld-80" value="cmakelist.txt" style="ellipse;whiteSpace=wrap;html=1;fontSize=27;fontColor=#CC0000;" parent="1" vertex="1">
          <mxGeometry x="4980" y="1865" width="170" height="65" as="geometry" />
        </mxCell>
        <mxCell id="kOqXvXwqG980JL6K90Ld-81" value="readme.md" style="ellipse;whiteSpace=wrap;html=1;fontSize=27;fontColor=#CC0000;" parent="1" vertex="1">
          <mxGeometry x="5180" y="1865" width="160" height="75" as="geometry" />
        </mxCell>
        <mxCell id="kOqXvXwqG980JL6K90Ld-82" value="" style="ellipse;whiteSpace=wrap;html=1;fontSize=27;fontColor=#CC0000;" parent="1" vertex="1">
          <mxGeometry x="5360" y="1867.5" width="170" height="72.5" as="geometry" />
        </mxCell>
      </root>
    </mxGraphModel>
  </diagram>
</mxfile>
